<svg width="756" height="157" viewBox="0 0 756 157" fill="none" xmlns="http://www.w3.org/2000/svg">
<path d="M119.492 11.3242V38.2773C106.341 27.2747 92.7344 21.7734 78.6719 21.7734C63.1771 21.7734 50.1237 27.3398 39.5117 38.4727C28.8346 49.5404 23.4961 63.082 23.4961 79.0977C23.4961 94.918 28.8346 108.264 39.5117 119.137C50.1888 130.009 63.2747 135.445 78.7695 135.445C86.7773 135.445 93.5807 134.143 99.1797 131.539C102.305 130.237 105.527 128.479 108.848 126.266C112.233 124.052 115.781 121.383 119.492 118.258V145.699C106.471 153.056 92.7995 156.734 78.4766 156.734C56.9271 156.734 38.5352 149.215 23.3008 134.176C8.13151 119.007 0.546875 100.712 0.546875 79.293C0.546875 60.0872 6.89453 42.9648 19.5898 27.9258C35.2148 9.5013 55.4297 0.289062 80.2344 0.289062C93.776 0.289062 106.862 3.96745 119.492 11.3242ZM211.055 3.21875V94.0391C211.055 106.995 213.171 116.467 217.402 122.457C223.717 131.116 232.604 135.445 244.062 135.445C255.586 135.445 264.505 131.116 270.82 122.457C275.052 116.663 277.168 107.19 277.168 94.0391V3.21875H299.922V100.289C299.922 116.174 294.974 129.26 285.078 139.547C273.945 151.005 260.273 156.734 244.062 156.734C227.852 156.734 214.212 151.005 203.145 139.547C193.249 129.26 188.301 116.174 188.301 100.289V3.21875H211.055ZM427.227 89.7422L473.906 154H446.074L403.008 92.2812H398.906V154H376.152V3.21875H402.812C422.734 3.21875 437.122 6.96224 445.977 14.4492C455.742 22.7826 460.625 33.7852 460.625 47.457C460.625 58.1341 457.565 67.3138 451.445 74.9961C445.326 82.6784 437.253 87.5938 427.227 89.7422ZM398.906 72.457H406.133C427.682 72.457 438.457 64.2214 438.457 47.75C438.457 32.3203 427.975 24.6055 407.012 24.6055H398.906V72.457ZM559.414 3.21875V132.613H603.75V154H536.66V3.21875H559.414ZM682.91 88.8633L633.691 3.21875H659.863L694.336 63.4727L728.906 3.21875H755.078L705.664 88.8633V154H682.91V88.8633Z" fill="#243127"/>
</svg>
