<svg width="158" height="34" viewBox="0 0 158 34" fill="none" xmlns="http://www.w3.org/2000/svg">
<path d="M25.124 11.916C23.22 9.592 20.868 8.43 18.068 8.43C16.836 8.43 15.688 8.654 14.624 9.102C13.588 9.55 12.692 10.166 11.936 10.95C11.18 11.706 10.578 12.616 10.13 13.68C9.71 14.744 9.5 15.892 9.5 17.124C9.5 18.384 9.71 19.546 10.13 20.61C10.578 21.674 11.18 22.598 11.936 23.382C12.72 24.166 13.63 24.782 14.666 25.23C15.702 25.678 16.822 25.902 18.026 25.902C20.658 25.902 23.024 24.782 25.124 22.542V32.286L24.284 32.58C23.024 33.028 21.848 33.35 20.756 33.546C19.664 33.77 18.586 33.882 17.522 33.882C15.338 33.882 13.238 33.476 11.222 32.664C9.234 31.824 7.47 30.662 5.93 29.178C4.418 27.666 3.2 25.888 2.276 23.844C1.352 21.772 0.89 19.518 0.89 17.082C0.89 14.646 1.338 12.42 2.234 10.404C3.158 8.36 4.376 6.61 5.888 5.154C7.428 3.67 9.206 2.522 11.222 1.71C13.238 0.869998 15.352 0.449998 17.564 0.449998C18.824 0.449998 20.056 0.589998 21.26 0.869998C22.492 1.122 23.78 1.528 25.124 2.088V11.916ZM42.7637 1.332V18.552C42.7637 19.476 42.7917 20.428 42.8477 21.408C42.9317 22.36 43.1417 23.228 43.4777 24.012C43.8417 24.796 44.4017 25.44 45.1577 25.944C45.9137 26.42 46.9777 26.658 48.3497 26.658C49.7217 26.658 50.7717 26.42 51.4997 25.944C52.2557 25.44 52.8157 24.796 53.1797 24.012C53.5437 23.228 53.7537 22.36 53.8097 21.408C53.8937 20.428 53.9357 19.476 53.9357 18.552V1.332H62.1257V19.686C62.1257 24.614 60.9917 28.212 58.7237 30.48C56.4837 32.748 53.0257 33.882 48.3497 33.882C43.6737 33.882 40.2017 32.748 37.9337 30.48C35.6657 28.212 34.5317 24.614 34.5317 19.686V1.332H42.7637ZM81.2117 15.486H82.7657C84.3897 15.486 85.6357 15.15 86.5037 14.478C87.3717 13.806 87.8057 12.84 87.8057 11.58C87.8057 10.32 87.3717 9.354 86.5037 8.682C85.6357 8.01 84.3897 7.674 82.7657 7.674H81.2117V15.486ZM99.3137 33H89.0657L81.2117 20.82V33H72.9797V1.332H85.7897C87.5537 1.332 89.0937 1.598 90.4097 2.13C91.7257 2.634 92.8037 3.334 93.6437 4.23C94.5117 5.126 95.1557 6.162 95.5757 7.338C96.0237 8.514 96.2477 9.774 96.2477 11.118C96.2477 13.526 95.6597 15.486 94.4837 16.998C93.3357 18.482 91.6277 19.49 89.3597 20.022L99.3137 33ZM115.189 1.332V26.028H125.059V33H106.957V1.332H115.189ZM137.955 17.796L126.405 1.332H136.233L142.113 9.984L147.951 1.332H157.779L146.187 17.796V33H137.955V17.796Z" fill="#243127"/>
</svg>
